<svg width="1200" height="700" viewBox="0 0 1200 700" fill="none" xmlns="http://www.w3.org/2000/svg">
<path d="M987.178 373.232C990.116 378.335 993.245 382.863 996.567 386.818C1000.02 390.645 1003.78 393.643 1007.87 395.812C1011.96 397.853 1016.56 398.873 1021.67 398.873C1027.8 398.873 1032.78 397.215 1036.61 393.898C1040.45 390.581 1042.36 386.308 1042.36 381.077C1042.36 376.102 1041.15 372.147 1038.72 369.213C1036.29 366.152 1032.91 363.6 1028.57 361.559C1024.35 359.39 1019.43 357.286 1013.81 355.244C1010.49 354.096 1006.79 352.565 1002.7 350.652C998.61 348.611 994.714 346.123 991.01 343.189C987.305 340.127 984.24 336.428 981.812 332.09C979.385 327.625 978.172 322.268 978.172 316.017C978.172 308.873 980.024 302.622 983.729 297.264C987.433 291.778 992.415 287.568 998.674 284.634C1005.06 281.573 1012.28 280.042 1020.33 280.042C1028.25 280.042 1035.14 281.445 1041.02 284.252C1046.9 287.058 1051.81 290.63 1055.77 294.968C1059.86 299.305 1063.06 303.834 1065.36 308.554L1046.96 318.887C1045.3 315.57 1043.19 312.508 1040.64 309.702C1038.08 306.768 1035.08 304.472 1031.63 302.813C1028.31 301.027 1024.41 300.134 1019.94 300.134C1013.68 300.134 1009.09 301.601 1006.15 304.535C1003.21 307.342 1001.74 310.659 1001.74 314.486C1001.74 317.93 1002.76 321.056 1004.81 323.862C1006.98 326.541 1010.3 329.093 1014.77 331.516C1019.24 333.94 1025.05 336.428 1032.21 338.979C1036.17 340.382 1040.13 342.168 1044.09 344.337C1048.17 346.506 1051.88 349.249 1055.2 352.565C1058.52 355.755 1061.14 359.518 1063.06 363.855C1065.1 368.193 1066.12 373.296 1066.12 379.164C1066.12 385.415 1064.91 391.028 1062.48 396.003C1060.05 400.978 1056.73 405.188 1052.52 408.632C1048.3 411.949 1043.51 414.501 1038.15 416.287C1032.91 418.2 1027.42 419.157 1021.67 419.157C1013.75 419.157 1006.4 417.626 999.632 414.564C992.99 411.375 987.178 407.165 982.196 401.935C977.214 396.705 973.254 391.028 970.316 384.904L987.178 373.232Z" fill="#0B4946"/>
<path fill-rule="evenodd" clip-rule="evenodd" d="M843.012 280.042H822.014V280.042L822.013 280.042L822.013 301.04H822.014V419.157H822.014H843.012L881.072 419.157C881.072 419.157 937.506 412.595 937.506 349.599C937.506 286.604 881.072 280.042 881.072 280.042L843.012 280.042ZM843.012 301.04V398.158H881.072C881.072 398.158 917.163 392.253 917.163 349.599C917.163 306.946 881.072 301.04 881.072 301.04L843.012 301.04Z" fill="#0B4946"/>
<path fill-rule="evenodd" clip-rule="evenodd" d="M741.151 368.056C756.433 360.23 766.893 344.325 766.893 325.976C766.893 303.026 750.529 284.202 728.833 280V280.042H694.71H680.274H673.712V419.157H694.71V369.285H717.63L746.336 419.157H770.565L741.151 368.056ZM728.833 300.691V301.04L694.71 301.04V348.287H731.448C738.605 343.169 743.269 334.789 743.269 325.32C743.269 314.741 737.447 305.521 728.833 300.691Z" fill="#0B4946"/>
<path fill-rule="evenodd" clip-rule="evenodd" d="M584.332 316.789H580.894C572.017 307.109 559.265 301.04 545.096 301.04C530.927 301.04 518.175 307.109 509.298 316.789H483.747C487.144 310.451 491.495 304.7 496.608 299.728H593.584C595.296 301.393 596.923 303.145 598.457 304.978C602.435 309.73 605.79 315.021 608.396 320.726H584.142C583.567 319.949 582.968 319.189 582.348 318.448L584.332 316.789ZM587.531 325.976C591.432 332.968 593.655 341.024 593.655 349.599C593.655 376.418 571.914 398.158 545.096 398.158C518.277 398.158 496.537 376.418 496.537 349.599C496.537 345.994 496.93 342.481 497.675 339.1H476.325C475.807 342.524 475.538 346.03 475.538 349.599C475.538 388.015 506.68 419.157 545.096 419.157C566.529 419.157 585.697 409.463 598.457 394.221C608.567 382.144 614.653 366.582 614.653 349.599C614.653 341.306 613.202 333.351 610.539 325.976H587.531ZM587.527 294.478H502.665C514.407 285.426 529.123 280.042 545.096 280.042C561.069 280.042 575.785 285.426 587.527 294.478Z" fill="#178D8D"/>
<path d="M404.668 360.099L404.668 339.1L495.224 339.1L495.224 360.099L404.668 360.099Z" fill="#178D8D"/>
<mask id="mask0_1_2" style="mask-type:alpha" maskUnits="userSpaceOnUse" x="475" y="280" width="199" height="140">
<path d="M545.096 419.157C506.68 419.157 475.538 388.015 475.538 349.599C475.538 311.184 506.68 280.042 545.096 280.042C566.529 280.042 673.712 297.103 673.712 297.103V321.383L610.716 356.161C610.716 356.161 566.529 419.157 545.096 419.157Z" fill="#178D8D"/>
</mask>
<g mask="url(#mask0_1_2)">
<path d="M481 321L481 300L665 300L665 321L481 321Z" fill="#178D8D"/>
</g>
<path fill-rule="evenodd" clip-rule="evenodd" d="M307.55 280.042H328.549V339.1H392.857V280.042H413.855V419.157H392.857V360.099H328.549V419.157H307.55V280.042Z" fill="#0B4946"/>
<path fill-rule="evenodd" clip-rule="evenodd" d="M255.918 394.221C243.159 409.463 223.99 419.157 202.558 419.157C164.142 419.157 133 388.015 133 349.599C133 311.184 164.142 280.042 202.558 280.042C223.99 280.042 243.159 289.735 255.918 304.978L239.809 318.448C230.902 307.808 217.52 301.04 202.558 301.04C175.739 301.04 153.998 322.781 153.998 349.599C153.998 376.418 175.739 398.158 202.558 398.158C217.52 398.158 230.902 391.391 239.809 380.75L255.918 394.221Z" fill="#0B4946"/>
</svg>
