<svg width="934" height="140" viewBox="0 0 934 140" fill="none" xmlns="http://www.w3.org/2000/svg">
<path d="M854.178 93.2318C857.116 98.3346 860.245 102.863 863.567 106.818C867.016 110.645 870.784 113.643 874.872 115.812C878.959 117.853 883.558 118.873 888.668 118.873C894.799 118.873 899.781 117.215 903.613 113.898C907.446 110.581 909.362 106.308 909.362 101.077C909.362 96.1021 908.148 92.1474 905.721 89.2133C903.294 86.1516 899.909 83.6002 895.566 81.5591C891.35 79.3904 886.432 77.2855 880.812 75.2444C877.49 74.0963 873.786 72.5654 869.698 70.6519C865.61 68.6107 861.714 66.1231 858.01 63.189C854.305 60.1273 851.24 56.4278 848.812 52.0904C846.385 47.6255 845.172 42.2675 845.172 36.0166C845.172 28.8727 847.024 22.6217 850.729 17.2638C854.433 11.7783 859.415 7.56847 865.674 4.63436C872.061 1.57268 879.279 0.0418396 887.326 0.0418396C895.246 0.0418396 902.144 1.44511 908.02 4.25165C913.897 7.05819 918.815 10.6302 922.775 14.9675C926.862 19.3049 930.056 23.8337 932.355 28.5537L913.96 38.8869C912.3 35.5701 910.192 32.5084 907.637 29.7019C905.082 26.7678 902.08 24.4715 898.631 22.8131C895.31 21.0271 891.414 20.1341 886.943 20.1341C880.684 20.1341 876.085 21.6012 873.147 24.5353C870.209 27.3418 868.74 30.6587 868.74 34.4858C868.74 37.9302 869.762 41.0556 871.806 43.8622C873.977 46.5411 877.299 49.0925 881.77 51.5164C886.241 53.9402 892.053 56.4278 899.206 58.9792C903.166 60.3825 907.126 62.1685 911.086 64.3372C915.174 66.5058 918.878 69.2486 922.2 72.5654C925.521 75.7547 928.14 79.518 930.056 83.8554C932.1 88.1928 933.122 93.2956 933.122 99.1638C933.122 105.415 931.908 111.028 929.481 116.003C927.054 120.978 923.733 125.188 919.517 128.632C915.302 131.949 910.511 134.501 905.146 136.287C899.909 138.2 894.416 139.157 888.668 139.157C880.748 139.157 873.403 137.626 866.632 134.564C859.99 131.375 854.178 127.165 849.196 121.935C844.214 116.705 840.254 111.028 837.316 104.904L854.178 93.2318Z" fill="#0B4946"/>
<path fill-rule="evenodd" clip-rule="evenodd" d="M710.012 0.0418396H689.014V0.0418449L689.013 0.0418449L689.013 21.0404H689.014V139.157H689.014H710.012L748.072 139.157C748.072 139.157 804.506 132.595 804.506 69.5994C804.506 6.60388 748.072 0.0418475 748.072 0.0418475L710.012 0.0418396ZM710.012 21.0404V118.158H748.072C748.072 118.158 784.163 112.253 784.163 69.5994C784.163 26.9462 748.072 21.0404 748.072 21.0404L710.012 21.0404Z" fill="#0B4946"/>
<path fill-rule="evenodd" clip-rule="evenodd" d="M608.151 88.0559C623.433 80.2303 633.893 64.3247 633.893 45.9761C633.893 23.0259 617.529 4.20222 595.833 0V0.0417737H561.71H547.274H540.712V139.157H561.71V89.2855H584.63L613.336 139.157H637.565L608.151 88.0559ZM595.833 20.6911V21.0403L561.71 21.0403V68.2869H598.448C605.605 63.1689 610.269 54.7891 610.269 45.3198C610.269 34.7408 604.447 25.5215 595.833 20.6911Z" fill="#0B4946"/>
<path fill-rule="evenodd" clip-rule="evenodd" d="M451.332 36.7892H447.894C439.017 27.1091 426.265 21.0403 412.096 21.0403C397.927 21.0403 385.175 27.1091 376.298 36.7892H350.747C354.144 30.4506 358.495 24.6996 363.608 19.7279H460.584C462.296 21.3928 463.923 23.1451 465.457 24.9775C469.435 29.7297 472.79 35.0212 475.396 40.7264H451.142C450.567 39.9489 449.968 39.1892 449.348 38.4483L451.332 36.7892ZM454.531 45.9761C458.432 52.9682 460.655 61.0242 460.655 69.5994C460.655 96.4178 438.914 118.158 412.096 118.158C385.277 118.158 363.537 96.4178 363.537 69.5994C363.537 65.9944 363.93 62.4811 364.675 59.1001H343.325C342.807 62.5243 342.538 66.0305 342.538 69.5994C342.538 108.015 373.68 139.157 412.096 139.157C433.529 139.157 452.697 129.463 465.457 114.221C475.567 102.144 481.653 86.5823 481.653 69.5994C481.653 61.3059 480.202 53.3514 477.539 45.9761H454.531ZM454.527 14.4783H369.665C381.407 5.42591 396.123 0.0418091 412.096 0.0418091C428.069 0.0418091 442.785 5.42591 454.527 14.4783Z" fill="#178D8D"/>
<path d="M271.668 80.0986L271.668 59.1001L362.224 59.1001L362.224 80.0986L271.668 80.0986Z" fill="#178D8D"/>
<mask id="mask0_1_10" style="mask-type:alpha" maskUnits="userSpaceOnUse" x="342" y="0" width="199" height="140">
<path d="M412.096 139.157C373.68 139.157 342.538 108.015 342.538 69.5993C342.538 31.1838 373.68 0.0417786 412.096 0.0417786C433.529 0.0417786 540.712 17.1031 540.712 17.1031V41.3826L477.716 76.1614C477.716 76.1614 433.529 139.157 412.096 139.157Z" fill="#178D8D"/>
</mask>
<g mask="url(#mask0_1_10)">
<path d="M348 41L348 20L532 20L532 41L348 41Z" fill="#178D8D"/>
</g>
<path fill-rule="evenodd" clip-rule="evenodd" d="M174.55 0.0418091H195.549V59.1001H259.857V0.0418138H280.855V139.157H259.857V80.0986H195.549V139.157H174.55V0.0418091Z" fill="#0B4946"/>
<path fill-rule="evenodd" clip-rule="evenodd" d="M122.918 114.221C110.159 129.463 90.9903 139.157 69.5576 139.157C31.142 139.157 0 108.015 0 69.5994C0 31.1838 31.142 0.0418091 69.5576 0.0418091C90.9903 0.0418091 110.159 9.73541 122.918 24.9775L106.809 38.4483C97.9019 27.8076 84.52 21.0403 69.5576 21.0403C42.7391 21.0403 20.9985 42.781 20.9985 69.5994C20.9985 96.4178 42.7391 118.158 69.5576 118.158C84.52 118.158 97.9019 111.391 106.809 100.75L122.918 114.221Z" fill="#0B4946"/>
</svg>
