<svg width="1460" height="1460" viewBox="0 0 1460 1460" fill="none" xmlns="http://www.w3.org/2000/svg">
<path fill-rule="evenodd" clip-rule="evenodd" d="M933.7 582.612H918.206C878.2 538.986 820.73 511.635 756.873 511.635C693.015 511.635 635.546 538.986 595.54 582.612H480.39C495.7 554.045 515.308 528.127 538.349 505.721H975.397C983.113 513.224 990.444 521.121 997.357 529.379C1015.29 550.796 1030.41 574.644 1042.15 600.356H932.846C930.251 596.852 927.553 593.428 924.758 590.089L933.7 582.612ZM948.119 624.015C965.699 655.526 975.717 691.833 975.717 730.479C975.717 851.343 877.737 949.323 756.873 949.323C636.009 949.323 538.029 851.343 538.029 730.479C538.029 714.232 539.799 698.399 543.158 683.162H446.942C444.605 698.594 443.394 714.395 443.394 730.479C443.394 903.609 583.743 1043.96 756.873 1043.96C853.465 1043.96 939.853 1000.27 997.357 931.579C1042.92 877.148 1070.35 807.017 1070.35 730.479C1070.35 693.102 1063.81 657.253 1051.81 624.015H948.119ZM948.099 482.062H565.646C618.566 441.265 684.886 417 756.873 417C828.86 417 895.18 441.265 948.099 482.062Z" fill="#178D8D"/>
<path d="M124 777.797L124 683.161L532.114 683.161L532.114 777.797L124 777.797Z" fill="#178D8D"/>
<mask id="mask0_1_100" style="mask-type:alpha" maskUnits="userSpaceOnUse" x="443" y="417" width="894" height="627">
<path d="M756.873 1043.96C583.743 1043.96 443.394 903.609 443.394 730.479C443.394 557.349 583.743 417 756.873 417C853.465 417 1336.51 493.891 1336.51 493.891V603.313L1052.61 760.052C1052.61 760.052 853.465 1043.96 756.873 1043.96Z" fill="#178D8D"/>
</mask>
<g mask="url(#mask0_1_100)">
<path d="M461 600L461 506L1295 506L1295 600L461 600Z" fill="#178D8D"/>
</g>
</svg>
